/* XPM */
static char *wall_01_x3[] = {
/* columns rows colors chars-per-pixel */
"48 48 2 1 ",
"  c #444C5E",
". c #F1E6E7",
/* pixels */
"                                                ",
"                                                ",
"                                                ",
"   ............   ...   ...   ...............   ",
"   ............   ...   ...   ...............   ",
"   ............   ...   ...   ...............   ",
"   ...                                          ",
"   ...                                          ",
"   ...                                          ",
"   ...                                    ...   ",
"   ...                                    ...   ",
"   ...                                    ...   ",
"                                          ...   ",
"                                          ...   ",
"                                          ...   ",
"   ...                                    ...   ",
"   ...                                    ...   ",
"   ...                                    ...   ",
"   ...                                          ",
"   ...                                          ",
"   ...                                          ",
"                                          ...   ",
"                                          ...   ",
"                                          ...   ",
"   ...                                    ...   ",
"   ...                                    ...   ",
"   ...                                    ...   ",
"   ...                                    ...   ",
"   ...                                    ...   ",
"   ...                                    ...   ",
"                                          ...   ",
"                                          ...   ",
"                                          ...   ",
"   ...                                          ",
"   ...                                          ",
"   ...                                          ",
"                                          ...   ",
"                                          ...   ",
"                                          ...   ",
"   ...                                          ",
"   ...                                          ",
"   ...                                          ",
"   .........   ......   ............   ......   ",
"   .........   ......   ............   ......   ",
"   .........   ......   ............   ......   ",
"                                                ",
"                                                ",
"                                                "
};
