/* XPM */
static char *wall_01[] = {
/* columns rows colors chars-per-pixel */
"16 16 2 1 ",
"  c #444C5E",
". c #F1E6E7",
/* pixels */
"                ",
" .... . . ..... ",
" .              ",
" .            . ",
"              . ",
" .            . ",
" .              ",
"              . ",
" .            . ",
" .            . ",
"              . ",
" .              ",
"              . ",
" .              ",
" ... .. .... .. ",
"                "
};
