/* XPM */
static char *wall_01_x4[] = {
/* columns rows colors chars-per-pixel */
"64 64 2 1 ",
"  c #444C5E",
". c #F1E6E7",
/* pixels */
"                                                                ",
"                                                                ",
"                                                                ",
"                                                                ",
"    ................    ....    ....    ....................    ",
"    ................    ....    ....    ....................    ",
"    ................    ....    ....    ....................    ",
"    ................    ....    ....    ....................    ",
"    ....                                                        ",
"    ....                                                        ",
"    ....                                                        ",
"    ....                                                        ",
"    ....                                                ....    ",
"    ....                                                ....    ",
"    ....                                                ....    ",
"    ....                                                ....    ",
"                                                        ....    ",
"                                                        ....    ",
"                                                        ....    ",
"                                                        ....    ",
"    ....                                                ....    ",
"    ....                                                ....    ",
"    ....                                                ....    ",
"    ....                                                ....    ",
"    ....                                                        ",
"    ....                                                        ",
"    ....                                                        ",
"    ....                                                        ",
"                                                        ....    ",
"                                                        ....    ",
"                                                        ....    ",
"                                                        ....    ",
"    ....                                                ....    ",
"    ....                                                ....    ",
"    ....                                                ....    ",
"    ....                                                ....    ",
"    ....                                                ....    ",
"    ....                                                ....    ",
"    ....                                                ....    ",
"    ....                                                ....    ",
"                                                        ....    ",
"                                                        ....    ",
"                                                        ....    ",
"                                                        ....    ",
"    ....                                                        ",
"    ....                                                        ",
"    ....                                                        ",
"    ....                                                        ",
"                                                        ....    ",
"                                                        ....    ",
"                                                        ....    ",
"                                                        ....    ",
"    ....                                                        ",
"    ....                                                        ",
"    ....                                                        ",
"    ....                                                        ",
"    ............    ........    ................    ........    ",
"    ............    ........    ................    ........    ",
"    ............    ........    ................    ........    ",
"    ............    ........    ................    ........    ",
"                                                                ",
"                                                                ",
"                                                                ",
"                                                                "
};
